<svg xmlns="http://www.w3.org/2000/svg" version="1.1" width="1440" height="560" preserveAspectRatio="none"
     viewBox="0 0 1440 560">
    <g mask="url(&quot;#SvgjsMask1027&quot;)" fill="none">
        <rect width="1440" height="560" x="0" y="0" fill="rgba(248, 248, 248, 1)"></rect>
        <path d="M1149.5971008714318 159.2922825925323L1219.8218022983062-5.709362649388851 1063.9232661775047 10.676233768626474z" fill="rgba(241, 241, 241, 1)" class="triangle-float3"></path>
        <path d="M895.52 197.37 a115.79 115.79 0 1 0 231.58 0 a115.79 115.79 0 1 0 -231.58 0z" fill="rgba(241, 241, 241, 1)" class="triangle-float3"></path>
        <path d="M420.64 431.62 a132.11 132.11 0 1 0 264.22 0 a132.11 132.11 0 1 0 -264.22 0z" fill="rgba(241, 241, 241, 1)" class="triangle-float1"></path>
        <path d="M43.39004393895952 462.22634445787804L80.7739597482443 546.1919941180709 164.7396094084371 508.8080783087861 127.35569359915233 424.8424286485933z" fill="rgba(241, 241, 241, 1)" class="triangle-float3"></path>
        <path d="M1121.03 246.31 a109.04 109.04 0 1 0 218.08 0 a109.04 109.04 0 1 0 -218.08 0z" fill="rgba(241, 241, 241, 1)" class="triangle-float1"></path>
        <path d="M260.38659280970944 483.15753380149476L439.07270458734206 483.32782552608717 363.34552156562995 346.7123709827391z" fill="rgba(241, 241, 241, 1)" class="triangle-float2"></path>
        <path d="M167.89 328.97 a111.8 111.8 0 1 0 223.6 0 a111.8 111.8 0 1 0 -223.6 0z" fill="rgba(241, 241, 241, 1)" class="triangle-float2"></path>
        <path d="M1290.0799047137925 159.13529888822262L1204.990450630828 154.67594955932816 1200.5311013019336 239.76540364229254 1285.6205553848981 244.224752971187z" fill="rgba(241, 241, 241, 1)" class="triangle-float1"></path>
        <path d="M922.1742270232414 379.53664040585636L850.2726642236439 331.0384239232473 873.6760105406323 451.4382032054538z" fill="rgba(241, 241, 241, 1)" class="triangle-float2"></path>
        <path d="M479.2519059276399 170.34555894508802L599.9682600008066 242.87926218024114 672.5019632359597 122.1629081070744 551.785609162793 49.62920487192129z" fill="rgba(241, 241, 241, 1)" class="triangle-float2"></path>
    </g>
    <defs>
        <mask id="SvgjsMask1027">
            <rect width="1440" height="560" fill="#ffffff"></rect>
        </mask>
        <style>
            @keyframes float1 {
            0%{transform: translate(0, 0)}
            50%{transform: translate(-10px, 0)}
            100%{transform: translate(0, 0)}
            }

            .triangle-float1 {
            animation: float1 5s infinite;
            }

            @keyframes float2 {
            0%{transform: translate(0, 0)}
            50%{transform: translate(-5px, -5px)}
            100%{transform: translate(0, 0)}
            }

            .triangle-float2 {
            animation: float2 4s infinite;
            }

            @keyframes float3 {
            0%{transform: translate(0, 0)}
            50%{transform: translate(0, -10px)}
            100%{transform: translate(0, 0)}
            }

            .triangle-float3 {
            animation: float3 6s infinite;
            }
        </style>
    </defs>
</svg>